<svg xmlns="http://www.w3.org/2000/svg" version="1.0" id="Logout-icon"
    viewBox="0 0 512.000000 512.000000" preserveAspectRatio="xMidYMid meet">
    <g transform="translate(0.000000,512.000000) scale(0.100000,-0.100000)" fill="#ffffff" stroke="none">
        <path d="M1055 4786 c-41 -18 -83 -69 -90 -109 -3 -18 -4 -982 -3 -2144 l3 -2112 21 -27 c11 -15 33 -37 48 -48 27 -21 28 -21 1526 -21 1498 0 1499 0 1526 21 15 11 37 33 48 48 21 27 21 38 21 486 0 448 0 459 -21 486 -39 53 -71 69 -134 69 -63 0 -95 -16 -134 -69 -20 -26 -21 -42 -24 -377 l-3 -349 -1279 0 -1280 0 0 1920 0 1920 1280 0 1279 0 3 -349 c3 -335 4 -351 24 -377 39 -53 71 -69 134 -69 63 0 95 16 134 69 21 27 21 38 21 486 0 448 0 459 -21 486 -11 15 -33 37 -48 48 -27 21 -30 21 -1514 23 -1221 2 -1492 0 -1517 -11z" />
        <path d="M3140 3349 c-30 -12 -705 -683 -726 -721 -18 -35 -18 -101 0 -136 8 -15 171 -183 363 -374 376 -375 370 -370 460 -353 49 9 109 69 118 118 16 85 9 96 -208 314 l-201 203 876 2 c868 3 877 3 904 24 53 39 69 71 69 134 0 63 -16 95 -69 134 -27 21 -36 21 -904 24 l-876 2 201 203 c216 217 224 229 209 312 -17 91 -127 149 -216 114z" />
    </g>
</svg>